<?xml version="1.0" standalone="no"?>
<!DOCTYPE svg PUBLIC "-//W3C//DTD SVG 20010904//EN"
 "http://www.w3.org/TR/2001/REC-SVG-20010904/DTD/svg10.dtd">
<svg version="1.0" xmlns="http://www.w3.org/2000/svg"
 width="256.000000pt" height="256.000000pt" viewBox="0 0 256.000000 256.000000"
 preserveAspectRatio="xMidYMid meet">
<metadata>
Created by potrace 1.11, written by Peter Selinger 2001-2013
</metadata>
<g transform="translate(0.000000,256.000000) scale(0.100000,-0.100000)"
fill="#000000" stroke="none">
<path d="M1211 2307 c-22 -18 -43 -39 -46 -47 -2 -8 -18 -29 -34 -46 -17 -18
-27 -34 -24 -38 3 -3 -2 -8 -11 -12 -9 -3 -16 -11 -16 -17 0 -5 -10 -24 -23
-41 -13 -17 -44 -67 -70 -111 -42 -74 -51 -83 -111 -114 -36 -19 -73 -42 -82
-53 -10 -10 -21 -18 -25 -18 -15 0 -150 -143 -178 -188 -6 -11 -19 -9 -67 7
-33 11 -93 29 -134 39 -197 52 -255 44 -245 -32 6 -46 51 -196 90 -301 19 -51
35 -96 35 -99 0 -12 81 -180 118 -246 20 -36 35 -68 34 -72 -1 -5 2 -8 7 -8 5
0 18 -16 30 -35 21 -36 33 -52 64 -86 9 -10 17 -23 17 -29 0 -5 5 -10 10 -10
6 0 14 -8 17 -17 4 -10 27 -45 52 -78 134 -175 328 -291 541 -321 89 -13 202
-10 288 9 48 10 93 19 100 19 6 1 12 5 12 10 0 4 7 8 15 8 22 0 109 45 180 92
55 38 185 158 185 173 0 4 6 13 13 20 24 28 33 41 53 74 19 35 39 62 61 85 6
7 26 37 44 67 18 30 36 56 39 59 3 3 17 28 30 55 14 28 27 52 30 55 3 3 20 39
39 80 44 100 46 105 71 180 12 36 26 74 31 85 17 41 52 172 59 223 5 37 3 55
-6 62 -13 11 -84 15 -123 6 -65 -14 -190 -49 -239 -66 -59 -21 -57 -22 -100
35 -50 64 -119 129 -188 176 -40 27 -78 49 -84 49 -5 0 -10 5 -10 11 0 5 -3 8
-8 5 -17 -10 -40 18 -96 119 -6 11 -34 53 -61 94 -28 40 -54 81 -60 90 -5 8
-33 40 -61 70 -65 69 -104 75 -163 28z"/>
</g>
</svg>
